#N canvas 0 49 1117 623 10;
#X obj 44 207 osc~ 440;
#X obj 172 52 netreceive 32000;
#X msg 172 81 \; myAmp 0.602273 \;;
#X obj 44 263 *~;
#X obj 430 504 dac~;
#X msg 139 280 0;
#X obj 179 248 loadbang;
#X msg 191 206 0.5;
#X obj 245 171 bng 15 250 50 0 empty sine_on empty 17 7 0 10 -262144
-1 -1;
#X text 288 163 To hear the sine wave \, send a bang with send id "sine_on"
via tcp. Libpd will handle this internally once deployed on iOS and
Android.;
#X obj 253 265 bng 15 250 50 0 empty sine_off empty 17 7 0 10 -262144
-1 -1;
#X text 290 265 You can turn off the sound by sending a bang to "sine_off".
;
#X floatatom 225 341 5 0 1 0 - volume -;
#X text 6 159 Sine Wave Generator;
#X text 293 53 TCP Kalimba network receiver (no more wires necessary!)
;
#X text 170 10 Kalimba Sinewave Test;
#X text 49 240 Volume;
#X floatatom 250 112 5 0 0 0 - freq -;
#X text 284 111 Frequency Control of Sine wave: send a float to "freq"
in Hz!);
#X text 282 338 Alternatively \, send a float to receiver "volume"
in the range 0-1 to define volume.;
#X floatatom 773 408 8 0 0 0 - - -;
#X obj 734 339 oggread~;
#X msg 769 166 start;
#X msg 808 222 stop;
#X text 817 164 play file from beginning;
#X text 850 222 stop (pause) playing;
#X text 850 407 position in file (seconds);
#X msg 824 246 0;
#X msg 793 191 1;
#X obj 793 371 bng 15 250 50 0 empty empty empty 0 -6 0 8 -262144 -1
-1;
#X text 819 371 bang at end of file;
#X text 734 42 the absolute path gets converted into a relative one
on the mobile platforms \, see KalimbaPLATFORM for details;
#X obj 794 136 bng 15 250 50 0 empty startogg empty 17 7 0 10 -262144
-1 -1;
#X obj 674 13 loadbang;
#X text 816 135 oggtest;
#X text 739 11 Kalimba Ogg Test;
#X obj 30 540 cnv 15 1024 25 empty empty AAU_CPH_Credits: 20 12 1 14
-33173 -262144 0;
#X obj 443 395 r myAmp;
#X obj 429 434 *~;
#X obj 439 444 *~;
#X obj 449 454 *~;
#X obj 459 464 *~;
#X msg 733 82 open /Users/cerkut/Developer/UNITY/kalimba/unity3d/Assets/StreamingAssets/pd/kalimbaOggTest.ogg
;
#X obj 887 204 s myAmp;
#X obj 886 179 f 0.5;
#X obj 136 571 pddplink https://github.com/hagish/kalimba;
#X text 29 571 Kalimba;
#X connect 0 0 3 0;
#X connect 1 0 2 0;
#X connect 3 0 38 0;
#X connect 3 0 39 0;
#X connect 5 0 3 1;
#X connect 6 0 5 0;
#X connect 7 0 3 1;
#X connect 8 0 7 0;
#X connect 10 0 5 0;
#X connect 12 0 3 1;
#X connect 17 0 0 0;
#X connect 21 0 40 0;
#X connect 21 1 41 0;
#X connect 21 2 20 0;
#X connect 21 3 29 0;
#X connect 22 0 21 0;
#X connect 23 0 21 0;
#X connect 27 0 21 0;
#X connect 28 0 21 0;
#X connect 32 0 22 0;
#X connect 32 0 44 0;
#X connect 33 0 42 0;
#X connect 37 0 38 1;
#X connect 37 0 39 1;
#X connect 37 0 40 1;
#X connect 37 0 41 1;
#X connect 38 0 4 0;
#X connect 39 0 4 1;
#X connect 40 0 4 0;
#X connect 41 0 4 1;
#X connect 42 0 21 0;
#X connect 44 0 43 0;
